# xmcd
#
# Track frame offsets: 
#        150
#        22147
#        44800
#        62417
#        83485
#        103470
#        119955
#        137415
#        153462
#        169307
#
# Disc length: 2725 seconds
#
# Revision: 5
# Processed by: cddbd v1.5.2PL0 Copyright (c) Steve Scherf et al.
# Submitted via: ExactAudioCopy v1.0b3
#
DISCID=900aa30a
DTITLE=Kenny Rogers - Something Inside So Strong
DYEAR=1989
DGENRE=Country
TTITLE0=Planet Texas
TTITLE1=(Something Inside) So Strong
TTITLE2=Kenny Rogers and Gladys Knight - If I Knew Then What I Know Now 
TTITLE3=One Night
TTITLE4=There Lies The Difference
TTITLE5=Kenny Rogers and Anne Murray - If I Ever Fall In Love Again 
TTITLE6=When You Put Your Heart In It
TTITLE7=The Vows Go Unbroken (Always True to You)
TTITLE8=Kenny Rogers and Holly Dunn - Maybe
TTITLE9=Love The Way You Do
EXTD=
EXTT0=
EXTT1=
EXTT2=
EXTT3=
EXTT4=
EXTT5=
EXTT6=
EXTT7=
EXTT8=
EXTT9=
PLAYORDER=
